<svg width="12" height="12" viewBox="0 0 22 22" fill="none" xmlns="http://www.w3.org/2000/svg">
    <path fill-rule="evenodd" clip-rule="evenodd" d="M11 1.833A4.583 4.583 0 1 0 11 11a4.583 4.583 0 0 0 0-9.167zM8.25 6.417a2.75 2.75 0 1 1 5.5 0 2.75 2.75 0 0 1-5.5 0zM9.298 12.833a5.63 5.63 0 0 0-5.631 5.631c0 .94.762 1.703 1.702 1.703h11.262c.94 0 1.702-.763 1.702-1.703a5.63 5.63 0 0 0-5.63-5.63H9.297zm3.404 1.834a3.798 3.798 0 0 1 3.796 3.666H5.502a3.798 3.798 0 0 1 3.796-3.666h3.404z" fill="#909196"/>
</svg>
