<?xml version="1.0" standalone="no"?>
<svg version="1.0" xmlns="http://www.w3.org/2000/svg"
 width="228.000000pt" height="70.000000pt" viewBox="0 0 228.000000 70.000000"
 preserveAspectRatio="xMidYMid meet">

<g transform="translate(0.000000,70.000000) scale(0.100000,-0.100000)"
fill="#000000" stroke="none">
<path d="M2157 692 c6 -4 13 -21 16 -37 l4 -30 2 32 c0 17 7 34 14 36 6 3 -1
6 -18 6 -16 0 -25 -3 -18 -7z"/>
<path d="M2211 663 c1 -24 3 -30 6 -15 2 12 8 20 13 17 4 -3 6 4 3 15 -9 34
-23 22 -22 -17z"/>
<path d="M2261 688 c1 -7 5 -24 9 -38 7 -22 8 -21 9 13 1 20 -3 37 -9 37 -5 0
-10 -6 -9 -12z"/>
<path d="M320 445 l0 -245 30 0 30 0 0 75 0 75 55 0 55 0 0 -75 c0 -73 1 -75
25 -75 l25 0 0 145 0 145 -25 0 c-22 0 -24 -4 -27 -57 l-3 -58 -50 0 -50 0 -3
158 -3 157 -29 0 -30 0 0 -245z"/>
<path d="M1300 595 l0 -95 -35 0 c-88 0 -137 -45 -143 -130 -5 -71 9 -110 50
-145 26 -22 39 -25 109 -25 l79 0 0 245 0 245 -30 0 -30 0 0 -95z m-2 -247 l3
-128 -32 0 c-67 0 -117 102 -89 184 14 44 55 78 89 74 l26 -3 3 -127z"/>
<path d="M1610 595 l0 -95 -35 0 c-76 0 -131 -41 -146 -110 -13 -56 5 -116 46
-157 32 -32 36 -33 114 -33 l81 0 0 245 0 245 -30 0 -30 0 0 -95z m-2 -247 l3
-128 -31 0 c-64 0 -111 82 -95 167 9 49 56 95 92 91 l28 -3 3 -127z"/>
<path d="M1760 445 l0 -245 30 0 30 0 0 75 0 75 50 0 50 0 0 -75 0 -75 30 0
30 0 0 145 0 145 -30 0 -30 0 0 -60 0 -60 -50 0 -50 0 0 160 0 160 -30 0 -30
0 0 -245z"/>
<path d="M81 643 c-51 -27 -76 -66 -75 -118 1 -60 24 -90 94 -125 71 -36 92
-64 88 -116 -6 -74 -78 -94 -135 -38 -16 17 -29 22 -35 16 -27 -27 49 -82 112
-82 43 0 95 26 116 58 26 38 24 123 -2 159 -11 16 -47 42 -80 60 -79 42 -84
48 -84 92 0 74 77 98 130 41 32 -35 51 -23 26 15 -32 48 -102 65 -155 38z"/>
<path d="M932 487 c-19 -22 -81 -287 -68 -287 7 0 16 19 22 43 l9 42 52 3 53
3 12 -45 c11 -41 15 -46 41 -46 22 0 27 4 23 18 -2 9 -19 71 -36 137 -17 66
-36 125 -42 132 -13 17 -53 17 -66 0z m42 -92 c9 -35 16 -69 16 -75 0 -5 -21
-10 -46 -10 -38 0 -45 3 -40 18 2 9 12 43 20 75 9 31 20 57 25 57 5 0 16 -29
25 -65z"/>
<path d="M2120 485 c-12 -15 -82 -276 -75 -283 10 -10 24 12 30 48 l7 40 54 0
54 0 11 -45 c10 -41 14 -45 41 -45 23 0 28 4 24 18 -5 17 -36 133 -56 209 -17
66 -60 94 -90 58z m45 -96 c21 -78 21 -79 -31 -79 -38 0 -45 3 -40 18 2 9 12
43 21 76 19 68 29 65 50 -15z"/>
<path d="M610 345 l0 -145 25 0 25 0 0 140 0 140 33 0 c40 0 67 -25 67 -62 0
-39 -10 -59 -36 -68 -23 -9 -23 -10 -8 -47 9 -21 24 -54 34 -73 40 -80 41 -79
-54 -82 l-85 -3 35 -58 36 -57 79 0 c62 0 81 -3 85 -15 8 -20 64 -20 64 0 0
13 83 15 685 15 l685 0 0 60 0 60 -718 0 -717 0 -48 95 -47 95 24 9 c41 16 49
72 15 115 -19 24 -26 26 -100 26 l-79 0 0 -145z m440 -248 c-1 -58 -53 -65
-58 -8 -2 20 2 37 9 42 19 12 49 -9 49 -34z m65 33 c3 -5 -1 -10 -9 -10 -9 0
-16 -4 -16 -10 0 -5 5 -10 10 -10 6 0 10 -5 10 -11 0 -5 -4 -7 -10 -4 -5 3
-10 0 -10 -9 0 -8 6 -17 13 -19 6 -3 2 -6 -10 -6 -20 -1 -23 4 -23 38 0 35 8
47 32 50 4 1 10 -3 13 -9z m66 -6 c12 -15 11 -16 -11 -10 l-25 7 24 -20 c13
-12 21 -27 17 -36 -7 -19 -42 -19 -50 0 -3 8 -1 15 3 15 5 0 11 -6 14 -12 2
-7 8 -9 13 -5 5 5 1 14 -9 21 -17 13 -23 37 -10 49 10 11 20 8 34 -9z m120 0
c12 -15 11 -16 -9 -10 -19 7 -22 4 -22 -23 0 -17 5 -31 11 -31 6 0 8 9 4 21
-5 16 -3 20 6 17 8 -3 14 -13 14 -24 0 -14 -7 -19 -25 -19 -20 0 -26 6 -28 28
-3 27 12 57 28 57 4 0 14 -7 21 -16z m149 6 c0 -5 -7 -10 -15 -10 -8 0 -15 -4
-15 -10 0 -5 8 -10 18 -10 15 -1 15 -2 -2 -12 -19 -11 -19 -11 -1 -24 18 -13
18 -14 -3 -14 -19 0 -22 6 -22 38 0 21 3 42 7 45 10 11 33 8 33 -3z m67 -2
c11 -19 13 -78 2 -78 -5 0 -9 7 -9 15 0 8 -4 15 -10 15 -5 0 -10 -7 -10 -16 0
-8 -4 -13 -9 -10 -19 12 -2 86 19 86 5 0 12 -6 17 -12z m168 2 c3 -5 -1 -10
-9 -10 -9 0 -16 -4 -16 -10 0 -5 5 -10 10 -10 6 0 10 -5 10 -11 0 -5 -4 -7
-10 -4 -5 3 -10 -1 -10 -9 0 -8 8 -17 18 -19 10 -3 6 -5 -10 -6 -26 -1 -28 2
-28 38 0 35 8 47 32 50 4 1 10 -3 13 -9z m165 1 c0 -5 -6 -12 -12 -14 -10 -4
-10 -8 0 -15 11 -7 10 -11 -5 -16 -17 -7 -17 -8 1 -22 19 -14 19 -14 -2 -14
-19 0 -22 6 -22 38 0 21 3 42 7 45 10 10 33 8 33 -2z m200 0 c0 -5 -6 -12 -12
-14 -10 -4 -10 -8 0 -15 11 -7 10 -11 -5 -16 -17 -7 -17 -8 1 -22 19 -14 19
-14 -2 -14 -19 0 -22 6 -22 38 0 21 3 42 7 45 10 10 33 8 33 -2z m67 -3 c13
-18 16 -78 3 -78 -5 0 -10 7 -10 15 0 21 -18 19 -23 -2 -3 -10 -5 0 -6 23 -1
52 14 70 36 42z m-887 -38 c0 -22 -4 -40 -10 -40 -5 0 -10 18 -10 40 0 22 5
40 10 40 6 0 10 -18 10 -40z m128 18 c6 -23 6 -23 13 2 6 20 7 17 8 -17 1 -24
-3 -43 -9 -43 -5 0 -10 6 -10 14 0 8 -5 18 -11 22 -8 4 -9 0 -4 -15 4 -12 2
-21 -4 -21 -6 0 -11 18 -11 40 0 43 18 54 28 18z m262 -18 c0 -33 -3 -40 -20
-40 -12 0 -20 7 -20 18 0 14 2 15 10 2 7 -11 10 -5 10 23 0 20 5 37 10 37 6 0
10 -18 10 -40z m100 23 c1 -17 1 -17 14 0 18 23 26 22 27 -5 l2 -23 4 23 c2
12 9 22 14 22 7 0 8 -13 4 -32 -10 -46 -23 -56 -34 -27 -10 24 -10 24 -10 2
-1 -32 -19 -29 -27 5 -3 15 -7 33 -10 40 -2 6 1 12 6 12 6 0 10 -8 10 -17z
m188 -50 c14 -12 13 -13 -6 -13 -19 0 -22 5 -21 43 2 33 3 36 6 12 2 -16 12
-36 21 -42z m52 33 c0 -24 5 -36 18 -39 10 -3 6 -5 -10 -6 -26 -1 -28 2 -28
39 0 22 5 40 10 40 6 0 10 -15 10 -34z m210 22 c0 -9 3 -9 12 0 19 19 30 14
18 -7 -5 -11 -10 -29 -10 -40 0 -28 -16 -27 -23 2 -2 12 -8 30 -12 40 -4 10
-3 17 4 17 6 0 11 -5 11 -12z"/>
<path d="M1010 89 c0 -17 4 -28 10 -24 6 3 10 17 10 31 0 13 -4 24 -10 24 -5
0 -10 -14 -10 -31z"/>
<path d="M1490 110 c0 -5 5 -10 10 -10 6 0 10 5 10 10 0 6 -4 10 -10 10 -5 0
-10 -4 -10 -10z"/>
<path d="M2090 110 c0 -5 5 -10 10 -10 6 0 10 5 10 10 0 6 -4 10 -10 10 -5 0
-10 -4 -10 -10z"/>
</g>
</svg>
