<?xml version="1.0" encoding="UTF-8"?>
<svg version="1.1" xmlns="http://www.w3.org/2000/svg" width="228" height="70">
<path d="M0 0 C2.7225 -0.0825 5.445 -0.165 8.25 -0.25 C9.10110352 -0.28641602 9.95220703 -0.32283203 10.82910156 -0.36035156 C14.531606 -0.41472278 16.41555451 -0.42138703 19.4921875 1.796875 C21.59131391 4.86399235 21.86839459 7.31504861 22 11 C20.89791992 14.39808026 20.07902124 14.94731917 17 17 C17.5053125 18.05960938 18.010625 19.11921875 18.53125 20.2109375 C19.18770131 21.59886314 19.84394033 22.98688919 20.5 24.375 C20.83386719 25.07367188 21.16773437 25.77234375 21.51171875 26.4921875 C24 31.7734375 24 31.7734375 24 34 C71.52 34 119.04 34 168 34 C168 38.62 168 43.24 168 48 C123.12 48 78.24 48 32 48 C32 48.66 32 49.32 32 50 C29.36 50 26.72 50 24 50 C24 49.34 24 48.68 24 48 C22.9378125 48.13921875 21.875625 48.2784375 20.78125 48.421875 C12.19161541 49.20330442 12.19161541 49.20330442 8 48 C4.20730238 44.53030685 1.98642238 40.71775315 0 36 C0 35.34 0 34.68 0 34 C5.61 34 11.22 34 17 34 C16.4225 32.79601563 15.845 31.59203125 15.25 30.3515625 C14.49979782 28.77613793 13.74980884 27.20061182 13 25.625 C12.6184375 24.8309375 12.236875 24.036875 11.84375 23.21875 C11.4828125 22.45820312 11.121875 21.69765625 10.75 20.9140625 C10.41484375 20.2123291 10.0796875 19.5105957 9.734375 18.78759766 C9 17 9 17 9 15 C10.65 14.34 12.3 13.68 14 13 C14 10.36 14 7.72 14 5 C11.69 4.34 9.38 3.68 7 3 C7 12.24 7 21.48 7 31 C4.69 31 2.38 31 0 31 C0 20.77 0 10.54 0 0 Z " fill="#EC258E" transform="translate(60,20)"/>
<path d="M0 0 C1.18092224 0.00007553 2.36184448 0.00015106 3.57855225 0.00022888 C4.84846008 0.00539017 6.11836792 0.01055145 7.42675781 0.01586914 C8.73066467 0.01728409 10.03457153 0.01869904 11.37799072 0.02015686 C14.83691337 0.02396672 18.29579372 0.03378388 21.75469971 0.04486084 C25.28730701 0.05510793 28.81992117 0.05966154 32.35253906 0.06469727 C39.27833939 0.07540757 46.20410471 0.09299193 53.12988281 0.11352539 C53.12988281 4.73352539 53.12988281 9.35352539 53.12988281 14.11352539 C44.29833486 14.18122536 35.46695844 14.23629735 26.63521004 14.26896191 C22.53454088 14.284637 18.43405802 14.30590849 14.33349609 14.33984375 C10.37831662 14.37237208 6.42331664 14.39036451 2.46801376 14.39815712 C0.95686897 14.40371243 -0.55426568 14.4145603 -2.06533432 14.43071556 C-4.1774007 14.45240398 -6.2887196 14.45549606 -8.40087891 14.45410156 C-9.60445038 14.4607634 -10.80802185 14.46742523 -12.04806519 14.47428894 C-12.97934235 14.35523697 -13.91061951 14.236185 -14.87011719 14.11352539 C-15.53011719 13.12352539 -16.19011719 12.13352539 -16.87011719 11.11352539 C-16.54011719 10.12352539 -16.21011719 9.13352539 -15.87011719 8.11352539 C-15.52191678 6.44990122 -15.18607227 4.78357368 -14.87011719 3.11352539 C-14.21011719 3.11352539 -13.55011719 3.11352539 -12.87011719 3.11352539 C-12.87011719 5.75352539 -12.87011719 8.39352539 -12.87011719 11.11352539 C-12.21011719 11.11352539 -11.55011719 11.11352539 -10.87011719 11.11352539 C-10.89074219 9.83477539 -10.91136719 8.55602539 -10.93261719 7.23852539 C-10.99511719 3.36352539 -10.99511719 3.36352539 -9.87011719 1.11352539 C-6.6147782 -0.07276157 -3.43513549 -0.00734003 0 0 Z " fill="#EB228C" transform="translate(174.8701171875,53.886474609375)"/>
<path d="M0 0 C2.7225 -0.0825 5.445 -0.165 8.25 -0.25 C9.10110352 -0.28641602 9.95220703 -0.32283203 10.82910156 -0.36035156 C14.531606 -0.41472278 16.41555451 -0.42138703 19.4921875 1.796875 C21.59131391 4.86399235 21.86839459 7.31504861 22 11 C20.89791992 14.39808026 20.07902124 14.94731917 17 17 C17.62829712 18.33961792 17.62829712 18.33961792 18.26928711 19.70629883 C19.82336527 23.02094817 21.37526674 26.33661272 22.92651367 29.65258789 C23.59812063 31.08743618 24.27031704 32.52200872 24.94311523 33.95629883 C25.91024509 36.01831961 26.87524867 38.08132375 27.83984375 40.14453125 C28.29145119 41.10562553 28.29145119 41.10562553 28.75218201 42.08613586 C29.97369784 44.70338757 31.08554312 47.25662937 32 50 C29.36 50 26.72 50 24 50 C24 49.34 24 48.68 24 48 C22.9378125 48.13921875 21.875625 48.2784375 20.78125 48.421875 C12.19161541 49.20330442 12.19161541 49.20330442 8 48 C4.20730238 44.53030685 1.98642238 40.71775315 0 36 C0 35.34 0 34.68 0 34 C5.61 34 11.22 34 17 34 C16.4225 32.79601563 15.845 31.59203125 15.25 30.3515625 C14.49979782 28.77613793 13.74980884 27.20061182 13 25.625 C12.6184375 24.8309375 12.236875 24.036875 11.84375 23.21875 C11.4828125 22.45820312 11.121875 21.69765625 10.75 20.9140625 C10.41484375 20.2123291 10.0796875 19.5105957 9.734375 18.78759766 C9 17 9 17 9 15 C10.65 14.34 12.3 13.68 14 13 C14 10.36 14 7.72 14 5 C11.69 4.34 9.38 3.68 7 3 C7 12.24 7 21.48 7 31 C4.69 31 2.38 31 0 31 C0 20.77 0 10.54 0 0 Z " fill="#A73364" transform="translate(60,20)"/>
<path d="M0 0 C3.80634156 1.83520039 5.4868474 2.97369479 7.375 6.75 C7.58125 7.4925 7.7875 8.235 8 9 C6.02 9.99 6.02 9.99 4 11 C3.608125 10.195625 3.21625 9.39125 2.8125 8.5625 C1.23690321 5.83243432 1.23690321 5.83243432 -1.4375 5.0625 C-4.40435179 4.99013776 -5.69616009 5.10756008 -8 7 C-8.99184231 10.58589143 -9.18429132 12.44712603 -8 16 C-4.8079129 17.83867779 -1.51904441 19.3934266 1.80078125 20.98828125 C6.23249761 23.77501376 8.38880701 26.94813781 9.875 31.9375 C10.09047957 37.21674952 9.04394046 40.76375472 5.625 44.8125 C1.39466395 48.33778004 -1.22246033 49.44235534 -6.89453125 49.3359375 C-10.49374273 48.76166628 -12.99147469 47.00568354 -16 45 C-16 44.34 -16 43.68 -16 43 C-16.66 43 -17.32 43 -18 43 C-17.6875 41.0625 -17.6875 41.0625 -17 39 C-15.515 38.505 -15.515 38.505 -14 38 C-13.29875 38.825 -12.5975 39.65 -11.875 40.5 C-9.22560625 43.23476181 -9.22560625 43.23476181 -5.875 43.5625 C-2.97294084 43.22684718 -2.97294084 43.22684718 -1.0625 41.4375 C0.54649788 37.74626957 0.27069028 35.81207083 -1 32 C-3.43795772 29.89711704 -6.15559038 28.48471931 -9 27 C-16.17293233 22.66917293 -16.17293233 22.66917293 -18 18 C-18.73650973 13.62557858 -19.02973445 9.74771444 -16.72265625 5.83203125 C-11.73718996 -0.07982976 -7.63352173 -0.84296559 0 0 Z " fill="#A83265" transform="translate(18,4)"/>
<path d="M0 0 C2.31 0 4.62 0 7 0 C7 10.56 7 21.12 7 32 C9.97 31.67 12.94 31.34 16 31 C16 27.37 16 23.74 16 20 C18.64 20 21.28 20 24 20 C24 30.23 24 40.46 24 51 C21.36 51 18.72 51 16 51 C16 46.38 16 41.76 16 37 C13.03 36.67 10.06 36.34 7 36 C7 40.95 7 45.9 7 51 C4.69 51 2.38 51 0 51 C0 34.17 0 17.34 0 0 Z " fill="#A83365" transform="translate(175,0)"/>
<path d="M0 0 C2.31 0 4.62 0 7 0 C7 16.83 7 33.66 7 51 C-9 51 -9 51 -14 48 C-18.82410587 42.50587942 -19.34560714 39.19920939 -19.28515625 31.98828125 C-18.82388831 27.15444604 -16.72168325 24.55555592 -13.21875 21.390625 C-9.18659999 18.86343239 -4.66602646 19.27773967 0 19 C0 12.73 0 6.46 0 0 Z M-8.8125 25.375 C-12.10687929 29.32825514 -12.28727267 31.67404408 -12.21484375 36.6796875 C-11.90367625 40.04029645 -10.90955837 42.23443271 -9 45 C-5.61101532 47.60691129 -4.37265387 48 0 48 C0 39.75 0 31.5 0 23 C-5.84949318 22.35481918 -5.84949318 22.35481918 -8.8125 25.375 Z " fill="#A83265" transform="translate(130,0)"/>
<path d="M0 0 C2.31 0 4.62 0 7 0 C7 16.83 7 33.66 7 51 C-9 51 -9 51 -14 48 C-18.82410587 42.50587942 -19.34560714 39.19920939 -19.28515625 31.98828125 C-18.82388831 27.15444604 -16.72168325 24.55555592 -13.21875 21.390625 C-9.18659999 18.86343239 -4.66602646 19.27773967 0 19 C0 12.73 0 6.46 0 0 Z M-8.8125 24.8125 C-11.79268289 27.79268289 -12.1658686 30.25315974 -12.25 34.3125 C-12.18766585 38.57200013 -11.46801799 41.42562912 -9 45 C-5.61101532 47.60691129 -4.37265387 48 0 48 C0 39.75 0 31.5 0 23 C-5.71708558 22.45829867 -5.71708558 22.45829867 -8.8125 24.8125 Z " fill="#A83365" transform="translate(161,0)"/>
<path d="M0 0 C2.31 0 4.62 0 7 0 C7 10.56 7 21.12 7 32 C9.97 32 12.94 32 16 32 C16 28.04 16 24.08 16 20 C18.31 20 20.62 20 23 20 C23 30.23 23 40.46 23 51 C20.69 51 18.38 51 16 51 C16 46.05 16 41.1 16 36 C13.03 36 10.06 36 7 36 C7 40.95 7 45.9 7 51 C4.69 51 2.38 51 0 51 C0 34.17 0 17.34 0 0 Z " fill="#A83265" transform="translate(32,0)"/>
<path d="M0 0 C3 1.0625 3 1.0625 4.48828125 3.39453125 C6.55910202 8.41908087 7.86345895 13.54902815 9.1875 18.8125 C9.46013672 19.86566406 9.73277344 20.91882813 10.01367188 22.00390625 C12 29.76004464 12 29.76004464 12 32.0625 C9.69 32.0625 7.38 32.0625 5 32.0625 C3.50178941 28.69152617 3 26.85807881 3 23.0625 C-1.95 23.5575 -1.95 23.5575 -7 24.0625 C-7.66 26.7025 -8.32 29.3425 -9 32.0625 C-10.32 32.0625 -11.64 32.0625 -13 32.0625 C-9.27905271 14.89325593 -9.27905271 14.89325593 -7.4375 7.625 C-7.22996094 6.80128906 -7.02242187 5.97757813 -6.80859375 5.12890625 C-5.34773171 1.39559214 -4.04252426 0.08421926 0 0 Z M-3 6.0625 C-4.485 12.4975 -4.485 12.4975 -6 19.0625 C-3.69 19.0625 -1.38 19.0625 1 19.0625 C0.71812064 17.26926747 0.4241719 15.47792874 0.125 13.6875 C-0.11863281 12.19089844 -0.11863281 12.19089844 -0.3671875 10.6640625 C-0.7958802 7.9199885 -0.7958802 7.9199885 -3 6.0625 Z " fill="#A83265" transform="translate(216,18.9375)"/>
<path d="M0 0 C3.52107514 1.43717353 3.65907655 1.85014549 5.08203125 5.17578125 C7.18596038 10.22862322 8.5588908 15.36951631 9.8125 20.6875 C10.03292969 21.58404297 10.25335938 22.48058594 10.48046875 23.40429688 C12.0625 29.92403436 12.0625 29.92403436 12.0625 32.25 C9.7525 32.25 7.4425 32.25 5.0625 32.25 C3.56428941 28.87902617 3.0625 27.04557881 3.0625 23.25 C-0.2375 23.25 -3.5375 23.25 -6.9375 23.25 C-7.5975 26.22 -8.2575 29.19 -8.9375 32.25 C-10.2575 32.25 -11.5775 32.25 -12.9375 32.25 C-11.97005107 28.10519342 -10.9981714 23.96156682 -10.015625 19.8203125 C-9.36282552 17.06824732 -8.72793142 14.31484965 -8.109375 11.5546875 C-7.86703125 10.50539063 -7.6246875 9.45609375 -7.375 8.375 C-7.16746094 7.44945312 -6.95992188 6.52390625 -6.74609375 5.5703125 C-5.40320816 1.71681473 -4.08941209 0.34803507 0 0 Z M-2.9375 6.25 C-4.4225 12.685 -4.4225 12.685 -5.9375 19.25 C-3.2975 19.25 -0.6575 19.25 2.0625 19.25 C1.61420486 17.26853549 1.15357502 15.28985789 0.6875 13.3125 C0.30464844 11.65927734 0.30464844 11.65927734 -0.0859375 9.97265625 C-0.36695312 9.07417969 -0.64796875 8.17570312 -0.9375 7.25 C-1.5975 6.92 -2.2575 6.59 -2.9375 6.25 Z " fill="#A83265" transform="translate(96.9375,18.75)"/>
<path d="M0 0 C5.94 0 11.88 0 18 0 C24 11.75 24 11.75 24 14 C13.01525039 15.43974873 13.01525039 15.43974873 8 14 C4.20730238 10.53030685 1.98642238 6.71775315 0 2 C0 1.34 0 0.68 0 0 Z " fill="#EB268E" transform="translate(60,54)"/>
<path d="M0 0 C7.59 0 15.18 0 23 0 C23 0.66 23 1.32 23 2 C24.32 2 25.64 2 27 2 C27 2.66 27 3.32 27 4 C26.01 4 25.02 4 24 4 C24 4.66 24 5.32 24 6 C24.99 6.33 25.98 6.66 27 7 C26.01 7 25.02 7 24 7 C24 7.99 24 8.98 24 10 C24.99 10.33 25.98 10.66 27 11 C26.071875 10.814375 25.14375 10.62875 24.1875 10.4375 C20.98656229 9.75876119 20.98656229 9.75876119 18 11 C17.67 10.01 17.34 9.02 17 8 C16.67 8.99 16.34 9.98 16 11 C15.01 11 14.02 11 13 11 C12.67 9.02 12.34 7.04 12 5 C11.01 4.67 10.02 4.34 9 4 C9 5.98 9 7.96 9 10 C9.66 10 10.32 10 11 10 C10.67 8.68 10.34 7.36 10 6 C10.66 6.33 11.32 6.66 12 7 C12 8.32 12 9.64 12 11 C10.35 10.67 8.7 10.34 7 10 C6.67 8.02 6.34 6.04 6 4 C5.67 6.31 5.34 8.62 5 11 C4.34 11 3.68 11 3 11 C3 8.36 3 5.72 3 3 C2.01 2.67 1.02 2.34 0 2 C0 1.34 0 0.68 0 0 Z " fill="#F059A9" transform="translate(118,54)"/>
<path d="M0 0 C0.98226562 0.00257812 1.96453125 0.00515625 2.9765625 0.0078125 C3.95367187 0.00523438 4.93078125 0.00265625 5.9375 0 C8.6015625 0.1328125 8.6015625 0.1328125 11.6015625 1.1328125 C11.2715625 3.4428125 10.9415625 5.7528125 10.6015625 8.1328125 C8.52602602 8.6862889 6.75790286 9.1328125 4.6015625 9.1328125 C4.9315625 10.1228125 5.2615625 11.1128125 5.6015625 12.1328125 C3.47717911 12.21359891 1.3519302 12.27190391 -0.7734375 12.3203125 C-2.54847656 12.37251953 -2.54847656 12.37251953 -4.359375 12.42578125 C-5.86371094 12.28076172 -5.86371094 12.28076172 -7.3984375 12.1328125 C-8.0584375 11.1428125 -8.7184375 10.1528125 -9.3984375 9.1328125 C-9.0684375 8.1428125 -8.7384375 7.1528125 -8.3984375 6.1328125 C-8.05023709 4.46918833 -7.71439258 2.80286079 -7.3984375 1.1328125 C-6.7384375 1.1328125 -6.0784375 1.1328125 -5.3984375 1.1328125 C-5.3984375 3.7728125 -5.3984375 6.4128125 -5.3984375 9.1328125 C-4.7384375 9.1328125 -4.0784375 9.1328125 -3.3984375 9.1328125 C-3.4190625 7.8334375 -3.4396875 6.5340625 -3.4609375 5.1953125 C-3.48243204 3.84115617 -3.46991949 2.48525167 -3.3984375 1.1328125 C-2.3984375 0.1328125 -2.3984375 0.1328125 0 0 Z " fill="#EB248D" transform="translate(167.3984375,55.8671875)"/>
<path d="M0 0 C4.95 0 9.9 0 15 0 C15 3.3 15 6.6 15 10 C15.99 10.33 16.98 10.66 18 11 C14.37 11 10.74 11 7 11 C6.34 8.69 5.68 6.38 5 4 C4.01 4 3.02 4 2 4 C2 4.66 2 5.32 2 6 C2.66 6.33 3.32 6.66 4 7 C3.01 7.99 2.02 8.98 1 10 C1.99 10.33 2.98 10.66 4 11 C2.68 11 1.36 11 0 11 C0 7.33333333 0 3.66666667 0 0 Z " fill="#EE449E" transform="translate(181,54)"/>
<path d="M0 0 C1.65 0 3.3 0 5 0 C5 1.32 5 2.64 5 4 C6.65 3.34 8.3 2.68 10 2 C10.99 2.99 11.98 3.98 13 5 C11.94124926 8.40312738 10.99097846 11.01353231 9 14 C5.375 14.1875 5.375 14.1875 2 14 C2.66 13.67 3.32 13.34 4 13 C4 12.34 4 11.68 4 11 C2.68 11 1.36 11 0 11 C0 7.33333333 0 3.66666667 0 0 Z " fill="#EC2C91" transform="translate(107,54)"/>
<path d="M0 0 C5.33333333 -0.35555556 5.33333333 -0.35555556 7.875 1 C9.70488947 4.25313684 9.18128355 7.31390109 9 11 C9.66 11 10.32 11 11 11 C11 8.36 11 5.72 11 3 C11.66 3.33 12.32 3.66 13 4 C13.625 7.0625 13.625 7.0625 14 10 C15.32 10.33 16.64 10.66 18 11 C17.67 11.99 17.34 12.98 17 14 C12.71 14 8.42 14 4 14 C3.67 13.34 3.34 12.68 3 12 C3.99 11.34 4.98 10.68 6 10 C6.72965366 7.43717258 6.72965366 7.43717258 7 5 C5.16715557 3.87483915 5.16715557 3.87483915 3 3 C2.01 3.33 1.02 3.66 0 4 C0 2.68 0 1.36 0 0 Z " fill="#EA1887" transform="translate(112,54)"/>
<path d="M0 0 C4.66666667 0 9.33333333 0 14 0 C14 2.64 14 5.28 14 8 C13.236875 7.814375 12.47375 7.62875 11.6875 7.4375 C8.91032625 6.77180827 8.91032625 6.77180827 6 8 C6 6.02 6 4.04 6 2 C5.34 2 4.68 2 4 2 C4 3.98 4 5.96 4 8 C3.34 8 2.68 8 2 8 C2 6.02 2 4.04 2 2 C1.34 2 0.68 2 0 2 C0 1.34 0 0.68 0 0 Z " fill="#A83365" transform="translate(214,0)"/>
<path d="M0 0 C0.66 0 1.32 0 2 0 C2 0.66 2 1.32 2 2 C3.32 2 4.64 2 6 2 C6 2.66 6 3.32 6 4 C5.01 4 4.02 4 3 4 C3 4.66 3 5.32 3 6 C3.99 6.33 4.98 6.66 6 7 C5.01 7 4.02 7 3 7 C3 7.99 3 8.98 3 10 C3.99 10.33 4.98 10.66 6 11 C4.6078125 10.7215625 4.6078125 10.7215625 3.1875 10.4375 C-0.01343771 9.75876119 -0.01343771 9.75876119 -3 11 C-3.33 10.01 -3.66 9.02 -4 8 C-4.66 8.99 -5.32 9.98 -6 11 C-6 8.36 -6 5.72 -6 3 C-5.01 3.33 -4.02 3.66 -3 4 C-2.67 3.34 -2.34 2.68 -2 2 C-1.34 2 -0.68 2 0 2 C0 1.34 0 0.68 0 0 Z " fill="#F375B8" transform="translate(139,54)"/>
<path d="M0 0 C0.66 0 1.32 0 2 0 C2 2.64 2 5.28 2 8 C2.66 8 3.32 8 4 8 C4 5.36 4 2.72 4 0 C5.32 0.33 6.64 0.66 8 1 C7.34 1 6.68 1 6 1 C6 1.66 6 2.32 6 3 C6.66 3.33 7.32 3.66 8 4 C7.34 4 6.68 4 6 4 C6 4.99 6 5.98 6 7 C6.66 7.33 7.32 7.66 8 8 C7.67 8.99 7.34 9.98 7 11 C3.625 11.1875 3.625 11.1875 0 11 C-0.66 10.01 -1.32 9.02 -2 8 C-1.67 7.01 -1.34 6.02 -1 5 C-0.65179959 3.33637583 -0.31595508 1.67004829 0 0 Z " fill="#EC2790" transform="translate(160,57)"/>
<path d="M0 0 C1.98 0 3.96 0 6 0 C6 0.66 6 1.32 6 2 C6.66 2 7.32 2 8 2 C8 4.64 8 7.28 8 10 C8.99 10.33 9.98 10.66 11 11 C9.35 10.67 7.7 10.34 6 10 C5.67 8.02 5.34 6.04 5 4 C4.01 4 3.02 4 2 4 C2 4.66 2 5.32 2 6 C2.66 6.33 3.32 6.66 4 7 C3.01 7.99 2.02 8.98 1 10 C1.99 10.33 2.98 10.66 4 11 C2.68 11 1.36 11 0 11 C0 7.33333333 0 3.66666667 0 0 Z " fill="#F26EB4" transform="translate(181,54)"/>
<path d="M0 0 C0.33 0 0.66 0 1 0 C1 3.63 1 7.26 1 11 C-0.65 11 -2.3 11 -4 11 C-4 8.36 -4 5.72 -4 3 C-2.68 2.67 -1.36 2.34 0 2 C0 1.34 0 0.68 0 0 Z " fill="#F26EB4" transform="translate(205,54)"/>
<path d="M0 0 C0.66 0.66 1.32 1.32 2 2 C2.33 1.34 2.66 0.68 3 0 C4.65 0 6.3 0 8 0 C7.67 2.31 7.34 4.62 7 7 C4.92446352 7.5534764 3.15634036 8 1 8 C0.67 5.36 0.34 2.72 0 0 Z " fill="#F8B1D7" transform="translate(171,57)"/>
<path d="M0 0 C7.42857143 -0.28571429 7.42857143 -0.28571429 11 2 C10.01 2.33 9.02 2.66 8 3 C7.67 5.64 7.34 8.28 7 11 C5 9 5 9 4.0625 5.9375 C3.711875 4.968125 3.36125 3.99875 3 3 C2.01 2.67 1.02 2.34 0 2 C0 1.34 0 0.68 0 0 Z " fill="#EA1485" transform="translate(100,54)"/>
<path d="M0 0 C2.475 0.495 2.475 0.495 5 1 C4.67 3.31 4.34 5.62 4 8 C2.68 8 1.36 8 0 8 C0 5.36 0 2.72 0 0 Z " fill="#F488C1" transform="translate(100,57)"/>
<path d="M0 0 C1.9375 0.8125 1.9375 0.8125 4 2 C5 5 5 5 4.0625 7.1875 C3.5365625 8.0846875 3.5365625 8.0846875 3 9 C1.68 9 0.36 9 -1 9 C-0.67 8.34 -0.34 7.68 0 7 C0.66 7.33 1.32 7.66 2 8 C1.484375 7.4225 0.96875 6.845 0.4375 6.25 C-1 4 -1 4 -0.6875 1.75 C-0.460625 1.1725 -0.23375 0.595 0 0 Z " fill="#F58EC4" transform="translate(115,56)"/>
<path d="M0 0 C2.475 0.495 2.475 0.495 5 1 C5 3.31 5 5.62 5 8 C4.34 8 3.68 8 3 8 C3 7.01 3 6.02 3 5 C2.34 5 1.68 5 1 5 C0.67 5.99 0.34 6.98 0 8 C0 5.36 0 2.72 0 0 Z " fill="#F7AAD2" transform="translate(208,57)"/>
<path d="M0 0 C2.475 0.495 2.475 0.495 5 1 C5 3.31 5 5.62 5 8 C4.34 8 3.68 8 3 8 C3 7.01 3 6.02 3 5 C2.34 5 1.68 5 1 5 C0.67 5.99 0.34 6.98 0 8 C0 5.36 0 2.72 0 0 Z " fill="#F7A7D0" transform="translate(148,57)"/>
<path d="M0 0 C3.63 0 7.26 0 11 0 C10.01 0.495 10.01 0.495 9 1 C8.67 1.99 8.34 2.98 8 4 C6.68 4 5.36 4 4 4 C4 4.66 4 5.32 4 6 C3.01 5.67 2.02 5.34 1 5 C0.67 3.35 0.34 1.7 0 0 Z " fill="#ED3898" transform="translate(165,56)"/>
<path d="M0 0 C1.66666667 0 3.33333333 0 5 0 C5 2.64 5 5.28 5 8 C4.34 8 3.68 8 3 8 C2.67 7.01 2.34 6.02 2 5 C1.34 5.99 0.68 6.98 0 8 C0 5.36 0 2.72 0 0 Z " fill="#F9BBDC" transform="translate(133,57)"/>
<path d="M0 0 C1.32 0.33 2.64 0.66 4 1 C3.34 1 2.68 1 2 1 C2 1.66 2 2.32 2 3 C2.66 3.33 3.32 3.66 4 4 C3.34 4 2.68 4 2 4 C2 4.99 2 5.98 2 7 C2.66 7.33 3.32 7.66 4 8 C2.68 8 1.36 8 0 8 C0 5.36 0 2.72 0 0 Z " fill="#F8B8DA" transform="translate(107,57)"/>
<path d="M0 0 C1.32 0.33 2.64 0.66 4 1 C3.34 1 2.68 1 2 1 C2 1.66 2 2.32 2 3 C2.66 3.33 3.32 3.66 4 4 C3.34 4 2.68 4 2 4 C2 4.99 2 5.98 2 7 C2.66 7.33 3.32 7.66 4 8 C2.68 8 1.36 8 0 8 C0 5.36 0 2.72 0 0 Z " fill="#F8B5D8" transform="translate(164,57)"/>
<path d="M0 0 C1.98 0 3.96 0 6 0 C5.67 0.66 5.34 1.32 5 2 C4.01 2 3.02 2 2 2 C1.67 4.97 1.34 7.94 1 11 C0.67 11 0.34 11 0 11 C0 7.37 0 3.74 0 0 Z " fill="#EB1A89" transform="translate(206,54)"/>
<path d="M0 0 C1.32 0 2.64 0 4 0 C5.09658936 3.28976808 4.79953138 4.71303767 4 8 C3.34 8 2.68 8 2 8 C1.34 5.36 0.68 2.72 0 0 Z " fill="#F8B2D7" transform="translate(215,57)"/>
<path d="M0 0 C0.66 0 1.32 0 2 0 C2 2.31 2 4.62 2 7 C0.68 7.33 -0.64 7.66 -2 8 C-1.67 7.01 -1.34 6.02 -1 5 C-0.65179959 3.33637583 -0.31595508 1.67004829 0 0 Z " fill="#F7ABD3" transform="translate(160,57)"/>
<path d="M0 0 C1.32 0.33 2.64 0.66 4 1 C3.34 1 2.68 1 2 1 C2 1.66 2 2.32 2 3 C2.66 3.33 3.32 3.66 4 4 C3.01 4.99 2.02 5.98 1 7 C1.99 7.33 2.98 7.66 4 8 C2.68 8 1.36 8 0 8 C0 5.36 0 2.72 0 0 Z " fill="#F9BADB" transform="translate(181,57)"/>
<path d="M0 0 C0 0.66 0 1.32 0 2 C-0.66 2 -1.32 2 -2 2 C-2 3.65 -2 5.3 -2 7 C-4 4 -4 4 -4 2 C-4.66 1.67 -5.32 1.34 -6 1 C-4 0 -4 0 0 0 Z " fill="#EB1E8A" transform="translate(139,54)"/>
</svg>
